<svg width="199" height="198" viewBox="0 0 199 198" fill="none" xmlns="http://www.w3.org/2000/svg">
<path d="M198.072 98.9595C198.072 153.399 153.94 197.531 99.5 197.531C45.0603 197.531 0.928223 153.399 0.928223 98.9595C0.928223 44.5198 45.0603 0.387695 99.5 0.387695C153.94 0.387695 198.072 44.5198 198.072 98.9595ZM23.5952 98.9595C23.5952 140.881 57.5789 174.864 99.5 174.864C141.421 174.864 175.405 140.881 175.405 98.9595C175.405 57.0384 141.421 23.0547 99.5 23.0547C57.5789 23.0547 23.5952 57.0384 23.5952 98.9595Z" fill="#262626"/>
<path d="M138.031 8.23042C119 0.148459 97.9101 -1.7448 77.7443 2.8185C57.5785 7.38181 39.3582 18.1706 25.6611 33.6585C11.9641 49.1464 3.48391 68.5491 1.42038 89.1216C-0.643139 109.694 3.81448 130.394 14.1626 148.294C24.5107 166.194 40.2252 180.387 59.083 188.864C77.9407 197.342 98.9868 199.675 119.243 195.534C139.5 191.393 157.942 180.987 171.959 165.788C185.977 150.589 194.86 131.368 197.353 110.843L174.851 108.11C172.932 123.916 166.091 138.717 155.297 150.421C144.503 162.124 130.302 170.137 114.703 173.326C99.1048 176.515 82.8984 174.718 68.377 168.19C53.8557 161.662 41.7548 150.733 33.7863 136.949C25.8178 123.166 22.3852 107.226 23.9742 91.3838C25.5632 75.5421 32.0933 60.6011 42.6407 48.6747C53.188 36.7484 67.2185 28.4405 82.7471 24.9265C98.2757 21.4126 114.516 22.8705 129.171 29.0939L138.031 8.23042Z" fill="white"/>
<path d="M198.072 98.9595C198.072 115.17 194.074 131.13 186.433 145.426C178.791 159.722 167.742 171.913 154.264 180.919C140.785 189.925 125.294 195.468 109.162 197.057C93.0296 198.645 76.7545 196.231 61.7782 190.028C46.8019 183.825 33.5866 174.023 23.303 161.493C13.0193 148.962 5.98471 134.089 2.82225 118.19C-0.340206 102.291 0.46711 85.8578 5.17269 70.3456C9.87827 54.8334 18.3369 40.7211 29.7992 29.2587L51.1213 50.5807C43.1653 58.5367 37.2943 68.3319 34.0282 79.0988C30.7621 89.8657 30.2017 101.272 32.3968 112.307C34.5918 123.342 39.4745 133.666 46.6123 142.363C53.7501 151.061 62.9227 157.864 73.3176 162.169C83.7125 166.475 95.0089 168.151 106.206 167.048C117.403 165.945 128.156 162.098 137.511 155.847C146.866 149.596 154.535 141.134 159.839 131.211C165.143 121.289 167.918 110.211 167.918 98.9595H198.072Z" fill="#14FFD5"/>
</svg>
