<svg width="199" height="147" viewBox="0 0 199 147" fill="none" xmlns="http://www.w3.org/2000/svg">
<path d="M198.003 44.2862C198.57 59.485 195.612 74.6088 189.361 88.4741C183.109 102.339 173.734 114.57 161.969 124.209C150.204 133.848 136.368 140.633 121.544 144.035C106.72 147.436 91.3098 147.361 76.5195 143.815C61.7293 140.269 47.9601 133.349 36.2897 123.596C24.6192 113.843 15.3639 101.521 9.24821 87.5954C3.13248 73.6698 0.322179 58.5179 1.03722 43.3253C1.75225 28.1328 5.97323 13.3118 13.3698 0.0220985L39.7178 14.6865C34.5838 23.9108 31.6541 34.1979 31.1578 44.743C30.6615 55.288 32.6121 65.8048 36.857 75.4705C41.1019 85.1361 47.5258 93.6884 55.6262 100.458C63.7266 107.228 73.2837 112.031 83.5495 114.492C93.8153 116.953 104.511 117.005 114.801 114.645C125.09 112.284 134.693 107.574 142.859 100.884C151.026 94.1933 157.533 85.7041 161.872 76.0803C166.211 66.4566 168.264 55.9592 167.87 45.4099L198.003 44.2862Z" fill="#14FFD5"/>
</svg>
