<svg width="199" height="198" viewBox="0 0 199 198" fill="none" xmlns="http://www.w3.org/2000/svg">
<path d="M198.072 98.9595C198.072 153.399 153.94 197.531 99.5 197.531C45.0603 197.531 0.928223 153.399 0.928223 98.9595C0.928223 44.5198 45.0603 0.387695 99.5 0.387695C153.94 0.387695 198.072 44.5198 198.072 98.9595ZM23.5952 98.9595C23.5952 140.881 57.5789 174.864 99.5 174.864C141.421 174.864 175.405 140.881 175.405 98.9595C175.405 57.0384 141.421 23.0547 99.5 23.0547C57.5789 23.0547 23.5952 57.0384 23.5952 98.9595Z" fill="#262626"/>
<path d="M138.031 8.23042C119 0.148459 97.9101 -1.7448 77.7443 2.8185C57.5785 7.38181 39.3582 18.1706 25.6611 33.6585C11.9641 49.1464 3.48391 68.5491 1.42038 89.1216C-0.643139 109.694 3.81448 130.394 14.1626 148.294C24.5107 166.194 40.2252 180.387 59.083 188.864C77.9407 197.342 98.9868 199.675 119.243 195.534C139.5 191.393 157.942 180.987 171.959 165.788C185.977 150.589 194.86 131.368 197.353 110.843L174.851 108.11C172.932 123.916 166.091 138.717 155.297 150.421C144.503 162.124 130.302 170.137 114.703 173.326C99.1048 176.515 82.8984 174.718 68.377 168.19C53.8557 161.662 41.7548 150.733 33.7863 136.949C25.8178 123.166 22.3852 107.226 23.9742 91.3838C25.5632 75.5421 32.0933 60.6011 42.6407 48.6747C53.188 36.7484 67.2185 28.4405 82.7471 24.9265C98.2757 21.4126 114.516 22.8705 129.171 29.0939L138.031 8.23042Z" fill="white"/>
<path d="M198.003 95.2862C198.57 110.485 195.612 125.609 189.361 139.474C183.109 153.339 173.734 165.57 161.969 175.209C150.204 184.848 136.368 191.633 121.544 195.035C106.72 198.436 91.3098 198.361 76.5195 194.815C61.7293 191.269 47.9601 184.349 36.2897 174.596C24.6192 164.843 15.3639 152.521 9.24821 138.595C3.13248 124.67 0.322179 109.518 1.03722 94.3253C1.75225 79.1328 5.97323 64.3118 13.3698 51.0221L39.7178 65.6865C34.5838 74.9108 31.6541 85.1979 31.1578 95.743C30.6615 106.288 32.6121 116.805 36.857 126.47C41.1019 136.136 47.5258 144.688 55.6262 151.458C63.7266 158.228 73.2837 163.031 83.5495 165.492C93.8153 167.953 104.511 168.005 114.801 165.645C125.09 163.284 134.693 158.574 142.859 151.884C151.026 145.193 157.533 136.704 161.872 127.08C166.211 117.457 168.264 106.959 167.87 96.4099L198.003 95.2862Z" fill="#14FFD5"/>
</svg>
