<svg width="28" height="28" viewBox="0 0 28 28" fill="none" xmlns="http://www.w3.org/2000/svg">
<path d="M5.83333 24.5002C5.19167 24.5002 4.64236 24.2717 4.18542 23.8148C3.72847 23.3578 3.5 22.8085 3.5 22.1669V5.83353C3.5 5.19186 3.72847 4.64256 4.18542 4.18561C4.64236 3.72867 5.19167 3.5002 5.83333 3.5002H16.2458L13.9125 5.83353H5.83333V22.1669H22.1667V14.0585L24.5 11.7252V22.1669C24.5 22.8085 24.2715 23.3578 23.8146 23.8148C23.3576 24.2717 22.8083 24.5002 22.1667 24.5002H5.83333ZM10.5 17.5002V12.5419L21.2042 1.8377C21.4375 1.60436 21.7 1.42936 21.9917 1.3127C22.2833 1.19603 22.575 1.1377 22.8667 1.1377C23.1778 1.1377 23.4743 1.19603 23.7563 1.3127C24.0382 1.42936 24.2958 1.60436 24.5292 1.8377L26.1625 3.5002C26.3764 3.73353 26.5417 3.99117 26.6583 4.27311C26.775 4.55506 26.8333 4.84186 26.8333 5.13353C26.8333 5.4252 26.7799 5.712 26.6729 5.99395C26.566 6.27589 26.3958 6.53353 26.1625 6.76686L15.4583 17.5002H10.5ZM12.8333 15.1669H14.4667L21.2333 8.40019L20.4167 7.58353L19.5708 6.76686L12.8333 13.5044V15.1669Z" fill="#F5F5F5" fill-opacity="0.85"/>
</svg>
