<svg width="50" height="51" viewBox="0 0 50 51" fill="none" xmlns="http://www.w3.org/2000/svg">
<rect y="0.851074" width="50" height="50" rx="25" fill="white" fill-opacity="0.83"/>
<path d="M34.109 29.0176C34.5768 29.0176 35.0401 29.1097 35.4723 29.2888C35.9045 29.4678 36.2972 29.7302 36.628 30.061C36.9588 30.3918 37.2213 30.7845 37.4003 31.2168C37.5793 31.649 37.6715 32.1122 37.6715 32.5801V34.0114C37.6717 34.8673 37.4869 35.7131 37.1297 36.4909C36.7725 37.2686 36.2514 37.96 35.6021 38.5176C33.1241 40.6456 29.5759 41.6842 25.0001 41.6842C20.4242 41.6842 16.8807 40.6456 14.4076 38.5176C13.7591 37.9604 13.2387 37.2697 12.8818 36.4928C12.5249 35.7159 12.34 34.8711 12.3397 34.0162V32.5785C12.3401 31.6339 12.7157 30.7282 13.3837 30.0604C14.0518 29.3927 14.9577 29.0176 15.9022 29.0176H34.109ZM25.0001 10.0176C25.287 10.0176 25.5643 10.1215 25.7805 10.3101C25.9968 10.4987 26.1374 10.7593 26.1765 11.0436L26.1876 11.2051L26.186 12.391H31.7276C32.6725 12.391 33.5786 12.7663 34.2467 13.4344C34.9148 14.1025 35.2901 15.0087 35.2901 15.9535V23.0864C35.2901 24.0312 34.9148 24.9374 34.2467 25.6055C33.5786 26.2736 32.6725 26.6489 31.7276 26.6489H18.2693C17.3245 26.6489 16.4183 26.2736 15.7502 25.6055C15.0821 24.9374 14.7068 24.0312 14.7068 23.0864V15.9551C14.7068 15.4871 14.799 15.0237 14.9781 14.5914C15.1573 14.1591 15.4198 13.7663 15.7508 13.4355C16.0818 13.1046 16.4747 12.8422 16.9071 12.6633C17.3395 12.4844 17.8029 12.3924 18.2709 12.3926L23.8126 12.391V11.2051C23.8126 10.9179 23.9168 10.6404 24.1057 10.4241C24.2946 10.2078 24.5556 10.0673 24.8401 10.0287L25.0001 10.0176ZM21.436 17.1426C21.1696 17.1319 20.9038 17.1752 20.6546 17.2698C20.4054 17.3643 20.1778 17.5083 19.9856 17.693C19.7934 17.8777 19.6404 18.0993 19.536 18.3445C19.4315 18.5898 19.3777 18.8536 19.3777 19.1202C19.3777 19.3867 19.4315 19.6506 19.536 19.8958C19.6404 20.1411 19.7934 20.3627 19.9856 20.5474C20.1778 20.732 20.4054 20.876 20.6546 20.9706C20.9038 21.0651 21.1696 21.1084 21.436 21.0977C21.9468 21.0773 22.4298 20.86 22.784 20.4914C23.1382 20.1227 23.336 19.6314 23.336 19.1202C23.336 18.609 23.1382 18.1176 22.784 17.7489C22.4298 17.3803 21.9468 17.163 21.436 17.1426ZM28.5499 17.1426C28.2835 17.1319 28.0178 17.1752 27.7685 17.2698C27.5193 17.3643 27.2918 17.5083 27.0995 17.693C26.9073 17.8777 26.7544 18.0993 26.6499 18.3445C26.5454 18.5898 26.4916 18.8536 26.4916 19.1202C26.4916 19.3867 26.5454 19.6506 26.6499 19.8958C26.7544 20.1411 26.9073 20.3627 27.0995 20.5474C27.2918 20.732 27.5193 20.876 27.7685 20.9706C28.0178 21.0651 28.2835 21.1084 28.5499 21.0977C29.0607 21.0773 29.5438 20.86 29.8979 20.4914C30.2521 20.1227 30.4499 19.6314 30.4499 19.1202C30.4499 18.609 30.2521 18.1176 29.8979 17.7489C29.5438 17.3803 29.0607 17.163 28.5499 17.1426Z" fill="black"/>
</svg>
