<svg width="22" height="23" viewBox="0 0 22 23" fill="none" xmlns="http://www.w3.org/2000/svg">
<path d="M16.5 12.4149H11.9167V16.9982C11.9167 17.2413 11.8201 17.4745 11.6482 17.6464C11.4763 17.8183 11.2432 17.9149 11 17.9149C10.7569 17.9149 10.5238 17.8183 10.3519 17.6464C10.18 17.4745 10.0834 17.2413 10.0834 16.9982V12.4149H5.50004C5.25693 12.4149 5.02377 12.3183 4.85186 12.1464C4.67995 11.9745 4.58337 11.7413 4.58337 11.4982C4.58337 11.2551 4.67995 11.0219 4.85186 10.85C5.02377 10.6781 5.25693 10.5815 5.50004 10.5815H10.0834V5.99821C10.0834 5.75509 10.18 5.52194 10.3519 5.35003C10.5238 5.17812 10.7569 5.08154 11 5.08154C11.2432 5.08154 11.4763 5.17812 11.6482 5.35003C11.8201 5.52194 11.9167 5.75509 11.9167 5.99821V10.5815H16.5C16.7432 10.5815 16.9763 10.6781 17.1482 10.85C17.3201 11.0219 17.4167 11.2551 17.4167 11.4982C17.4167 11.7413 17.3201 11.9745 17.1482 12.1464C16.9763 12.3183 16.7432 12.4149 16.5 12.4149Z" fill="white"/>
</svg>
