<svg width="55" height="55" viewBox="0 0 55 55" fill="none" xmlns="http://www.w3.org/2000/svg">
<path d="M36.5341 24.9218C37.1423 23.2016 38.3389 21.7519 39.9127 20.8287C41.4864 19.9055 43.3358 19.5684 45.134 19.8769C46.9323 20.1855 48.5635 21.1198 49.7395 22.5147C50.9155 23.9096 51.5605 25.6754 51.5605 27.4999C51.5605 29.3244 50.9155 31.0902 49.7395 32.4851C48.5635 33.8801 46.9323 34.8144 45.134 35.1229C43.3358 35.4314 41.4864 35.0943 39.9127 34.1712C38.3389 33.248 37.1423 31.7982 36.5341 30.078H29.6385C29.0283 31.8048 27.8252 33.2589 26.2433 34.1818C24.6614 35.1046 22.8034 35.4361 21 35.1174L17.291 41.6762C18.4061 43.1199 18.975 44.9113 18.8973 46.7339C18.8195 48.5564 18.1 50.2929 16.8659 51.6363C15.6319 52.9798 13.9627 53.8438 12.1532 54.0757C10.3438 54.3077 8.51062 53.8925 6.97762 52.9037C5.44461 51.9149 4.31045 50.4161 3.77553 48.6721C3.24062 46.928 3.33937 45.051 4.05435 43.3727C4.76933 41.6945 6.05452 40.3229 7.68282 39.5004C9.31112 38.678 11.1777 38.4575 12.9528 38.878L16.5106 32.5805C15.2844 31.172 14.6092 29.3674 14.6097 27.4999C14.6097 25.5543 15.3281 23.7805 16.5106 22.4193L12.9528 16.1218C11.1777 16.5423 9.31112 16.3219 7.68282 15.4994C6.05452 14.6769 4.76933 13.3054 4.05435 11.6271C3.33937 9.94881 3.24062 8.07182 3.77553 6.32778C4.31045 4.58373 5.44461 3.0849 6.97762 2.0961C8.51062 1.1073 10.3438 0.692183 12.1532 0.924104C13.9627 1.15602 15.6319 2.02005 16.8659 3.36351C18.1 4.70698 18.8195 6.4434 18.8973 8.26598C18.975 10.0886 18.4061 11.88 17.291 13.3237L21 19.8824C22.8034 19.5637 24.6614 19.8953 26.2433 20.8181C27.8252 21.7409 29.0283 23.1951 29.6385 24.9218H36.5341ZM8.59408 8.59367C8.59408 9.27743 8.86571 9.93319 9.3492 10.4167C9.83269 10.9002 10.4884 11.1718 11.1722 11.1718C11.856 11.1718 12.5117 10.9002 12.9952 10.4167C13.4787 9.93319 13.7503 9.27743 13.7503 8.59367C13.7503 7.90991 13.4787 7.25415 12.9952 6.77066C12.5117 6.28717 11.856 6.01554 11.1722 6.01554C10.4884 6.01554 9.83269 6.28717 9.3492 6.77066C8.86571 7.25415 8.59408 7.90991 8.59408 8.59367ZM22.3441 24.9218C21.6603 24.9218 21.0046 25.1934 20.5211 25.6769C20.0376 26.1604 19.766 26.8162 19.766 27.4999C19.766 28.1837 20.0376 28.8394 20.5211 29.3229C21.0046 29.8064 21.6603 30.078 22.3441 30.078C23.0278 30.078 23.6836 29.8064 24.1671 29.3229C24.6506 28.8394 24.9222 28.1837 24.9222 27.4999C24.9222 26.8162 24.6506 26.1604 24.1671 25.6769C23.6836 25.1934 23.0278 24.9218 22.3441 24.9218ZM43.8285 24.9218C43.1447 24.9218 42.4889 25.1934 42.0054 25.6769C41.522 26.1604 41.2503 26.8162 41.2503 27.4999C41.2503 28.1837 41.522 28.8394 42.0054 29.3229C42.4889 29.8064 43.1447 30.078 43.8285 30.078C44.5122 30.078 45.168 29.8064 45.6515 29.3229C46.135 28.8394 46.4066 28.1837 46.4066 27.4999C46.4066 26.8162 46.135 26.1604 45.6515 25.6769C45.168 25.1934 44.5122 24.9218 43.8285 24.9218ZM11.1722 43.828C10.4884 43.828 9.83269 44.0997 9.3492 44.5832C8.86571 45.0667 8.59408 45.7224 8.59408 46.4062C8.59408 47.0899 8.86571 47.7457 9.3492 48.2292C9.83269 48.7127 10.4884 48.9843 11.1722 48.9843C11.856 48.9843 12.5117 48.7127 12.9952 48.2292C13.4787 47.7457 13.7503 47.0899 13.7503 46.4062C13.7503 45.7224 13.4787 45.0667 12.9952 44.5832C12.5117 44.0997 11.856 43.828 11.1722 43.828Z" fill="white"/>
</svg>
