<svg width="55" height="55" viewBox="0 0 55 55" fill="none" xmlns="http://www.w3.org/2000/svg">
<path d="M20.8698 12.4852C22.2403 8.47475 27.7815 8.35329 29.4063 12.1208L29.5438 12.4875L31.3932 17.8958C31.817 19.1361 32.5019 20.2711 33.4017 21.2243C34.3014 22.1774 35.3951 22.9265 36.609 23.421L37.1063 23.6066L42.5146 25.4537C46.525 26.8241 46.6465 32.3654 42.8813 33.9902L42.5146 34.1277L37.1063 35.977C35.8655 36.4006 34.7301 37.0854 33.7765 37.9851C32.823 38.8849 32.0736 39.9788 31.5788 41.1929L31.3932 41.6879L29.5461 47.0985C28.1757 51.1089 22.6344 51.2304 21.0119 47.4652L20.8698 47.0985L19.0228 41.6902C18.5992 40.4494 17.9144 39.314 17.0147 38.3604C16.1149 37.4069 15.021 36.6574 13.8069 36.1627L13.3119 35.977L7.90359 34.13C3.89088 32.7595 3.76942 27.2183 7.53692 25.5958L7.90359 25.4537L13.3119 23.6066C14.5522 23.1828 15.6873 22.4979 16.6404 21.5981C17.5935 20.6984 18.3426 19.6047 18.8371 18.3908L19.0228 17.8958L20.8698 12.4852ZM43.5413 4.5835C43.97 4.5835 44.3901 4.70376 44.7539 4.93062C45.1177 5.15748 45.4106 5.48184 45.5992 5.86683L45.7092 6.13496L46.5113 8.48621L48.8648 9.28829C49.2945 9.43426 49.6711 9.70449 49.947 10.0647C50.2229 10.425 50.3857 10.859 50.4146 11.3119C50.4436 11.7647 50.3375 12.216 50.1097 12.6084C49.8819 13.0009 49.5428 13.3169 49.1353 13.5164L48.8648 13.6264L46.5136 14.4285L45.7115 16.782C45.5653 17.2116 45.2948 17.588 44.9345 17.8637C44.5741 18.1394 44.14 18.3019 43.6871 18.3306C43.2343 18.3593 42.7832 18.2529 42.3908 18.025C41.9985 17.797 41.6827 17.4578 41.4834 17.0502L41.3734 16.782L40.5713 14.4308L38.2178 13.6287C37.7881 13.4827 37.4115 13.2125 37.1356 12.8523C36.8597 12.492 36.6969 12.058 36.668 11.6051C36.639 11.1523 36.7451 10.701 36.9729 10.3086C37.2006 9.91611 37.5398 9.60009 37.9473 9.40058L38.2178 9.29058L40.569 8.4885L41.3711 6.13496C41.5256 5.68218 41.818 5.28912 42.2072 5.01089C42.5964 4.73266 43.0629 4.58321 43.5413 4.5835Z" fill="white"/>
</svg>
