<svg width="60" height="60" viewBox="0 0 60 60" fill="none" xmlns="http://www.w3.org/2000/svg">
<path d="M30.0014 55.9754C15.6779 55.9754 4.02588 44.3219 4.02588 29.9999C4.02588 15.6779 15.6779 4.02441 30.0014 4.02441C44.3249 4.02441 55.9739 15.6779 55.9739 29.9999C55.9739 44.3219 44.3234 55.9754 30.0014 55.9754ZM30.0014 6.27441C16.9184 6.27441 6.27588 16.9169 6.27588 29.9999C6.27588 43.0829 16.9199 53.7254 30.0014 53.7254C43.0829 53.7254 53.7239 43.0814 53.7239 29.9999C53.7239 16.9184 43.0829 6.27441 30.0014 6.27441Z" fill="#E6E6E6"/>
<path d="M44.9551 41.8754L40.5811 39.1349V40.7564H18.9466V39.7304L25.8256 34.3139L30.7891 38.6459L38.7406 28.6589L40.1191 29.7404L41.5186 23.2934L34.9276 25.6709L36.5371 26.9339L30.4246 34.6154L25.9156 30.6809L18.9466 36.1709V19.7144H20.5681L17.8276 15.3389L15.0901 19.7144H16.7086V42.9959H40.5811V44.6174L44.9551 41.8754Z" fill="#E6E6E6"/>
</svg>
