<svg width="29" height="29" viewBox="0 0 29 29" fill="none" xmlns="http://www.w3.org/2000/svg">
<path d="M7.25002 9.96859C7.25002 7.87414 7.98509 6.09185 9.45523 4.62171C10.9254 3.15157 12.7077 2.4165 14.8021 2.4165C16.8965 2.4165 18.6788 3.15157 20.149 4.62171C21.6191 6.09185 22.3542 7.87414 22.3542 9.96859L22.3542 21.1457C22.3542 22.6561 21.8253 23.9401 20.7676 24.9978C19.71 26.0555 18.4263 26.584 16.9167 26.5832C15.4071 26.5824 14.123 26.0539 13.0645 24.9978C12.006 23.9418 11.4776 22.6577 11.4792 21.1457L11.4792 10.5728C11.4792 9.64636 11.8014 8.86095 12.4459 8.2165C13.0903 7.57206 13.8757 7.24984 14.8021 7.24984C15.7285 7.24984 16.5139 7.57206 17.1584 8.2165C17.8028 8.86095 18.125 9.64636 18.125 10.5728L18.125 21.7498L15.7084 21.7498L15.7084 10.5728C15.7084 10.3109 15.6226 10.0947 15.451 9.92388C15.2794 9.7531 15.0631 9.66731 14.8021 9.6665C14.5411 9.6657 14.3244 9.75149 14.152 9.92388C13.9796 10.0963 13.8942 10.3126 13.8959 10.5728L13.8959 21.1457C13.916 21.9915 14.2128 22.7064 14.7864 23.2905C15.36 23.8745 16.07 24.1665 16.9167 24.1665C17.7633 24.1665 18.4783 23.8745 19.0615 23.2905C19.6447 22.7064 19.9367 21.9915 19.9375 21.1457L19.9375 9.96859C19.9577 8.53873 19.4643 7.32556 18.4573 6.32909C17.4504 5.33261 16.232 4.83398 14.8021 4.83317C13.3924 4.83317 12.1941 5.33181 11.2073 6.32909C10.2205 7.32636 9.70696 8.53953 9.66669 9.96859L9.66669 21.7498H7.25002L7.25002 9.96859Z" fill="white" fill-opacity="0.75"/>
</svg>
