<svg width="55" height="55" viewBox="0 0 55 55" fill="none" xmlns="http://www.w3.org/2000/svg">
<path d="M26.8122 41.2502C23.1455 41.0592 20.0518 39.646 17.5309 37.0106C15.0101 34.3752 13.7497 31.205 13.7497 27.5002C13.7497 23.6807 15.0865 20.4342 17.7601 17.7606C20.4337 15.087 23.6802 13.7502 27.4997 13.7502C31.2045 13.7502 34.3747 15.0106 37.0101 17.5314C39.6455 20.0522 41.0587 23.146 41.2497 26.8127L36.4372 25.3804C35.9406 23.3179 34.8712 21.6281 33.2288 20.3112C31.5865 18.9943 29.6768 18.335 27.4997 18.3335C24.9788 18.3335 22.8209 19.2311 21.0257 21.0262C19.2306 22.8213 18.333 24.9793 18.333 27.5002C18.333 29.6772 18.9922 31.587 20.3107 33.2293C21.6292 34.8717 23.3189 35.9411 25.3799 36.4377L26.8122 41.2502ZM29.5622 50.3022C29.2184 50.3786 28.8747 50.4168 28.5309 50.4168H27.4997C24.3295 50.4168 21.3504 49.8149 18.5622 48.611C15.774 47.4071 13.3486 45.7747 11.2861 43.7137C9.22364 41.6527 7.59121 39.2274 6.38884 36.4377C5.18648 33.6479 4.58454 30.6688 4.58301 27.5002C4.58148 24.3316 5.18343 21.3524 6.38884 18.5627C7.59426 15.7729 9.22669 13.3476 11.2861 11.2866C13.3456 9.22565 15.7709 7.59322 18.5622 6.38933C21.3534 5.18544 24.3326 4.5835 27.4997 4.5835C30.6668 4.5835 33.6459 5.18544 36.4372 6.38933C39.2284 7.59322 41.6538 9.22565 43.7132 11.2866C45.7727 13.3476 47.4059 15.7729 48.6128 18.5627C49.8197 21.3524 50.4209 24.3316 50.4163 27.5002V28.5314C50.4163 28.8752 50.3782 29.2189 50.3018 29.5627L45.833 28.1877V27.5002C45.833 22.3821 44.057 18.047 40.5049 14.495C36.9528 10.9429 32.6177 9.16683 27.4997 9.16683C22.3816 9.16683 18.0466 10.9429 14.4945 14.495C10.9424 18.047 9.16634 22.3821 9.16634 27.5002C9.16634 32.6182 10.9424 36.9533 14.4945 40.5054C18.0466 44.0575 22.3816 45.8335 27.4997 45.8335H28.1872L29.5622 50.3022ZM47.0361 51.5627L37.2393 41.7658L34.3747 50.4168L27.4997 27.5002L50.4163 34.3752L41.7653 37.2397L51.5622 47.0366L47.0361 51.5627Z" fill="white"/>
</svg>
