<svg width="21" height="21" viewBox="0 0 21 21" fill="none" xmlns="http://www.w3.org/2000/svg">
<path d="M8.83325 10.1994C8.83325 10.6414 9.00885 11.0653 9.32141 11.3779C9.63397 11.6905 10.0579 11.866 10.4999 11.866C10.9419 11.866 11.3659 11.6905 11.6784 11.3779C11.991 11.0653 12.1666 10.6414 12.1666 10.1994C12.1666 9.75735 11.991 9.33343 11.6784 9.02087C11.3659 8.70831 10.9419 8.53271 10.4999 8.53271C10.0579 8.53271 9.63397 8.70831 9.32141 9.02087C9.00885 9.33343 8.83325 9.75735 8.83325 10.1994ZM8.83325 5.19938C8.83325 5.64141 9.00885 6.06533 9.32141 6.37789C9.63397 6.69045 10.0579 6.86605 10.4999 6.86605C10.9419 6.86605 11.3659 6.69045 11.6784 6.37789C11.991 6.06533 12.1666 5.64141 12.1666 5.19938C12.1666 4.75735 11.991 4.33343 11.6784 4.02087C11.3659 3.70831 10.9419 3.53271 10.4999 3.53271C10.0579 3.53271 9.63397 3.70831 9.32141 4.02087C9.00885 4.33343 8.83325 4.75735 8.83325 5.19938ZM8.83325 15.1994C8.83325 15.6414 9.00885 16.0653 9.32141 16.3779C9.63397 16.6905 10.0579 16.866 10.4999 16.866C10.9419 16.866 11.3659 16.6905 11.6784 16.3779C11.991 16.0653 12.1666 15.6414 12.1666 15.1994C12.1666 14.7574 11.991 14.3334 11.6784 14.0209C11.3659 13.7083 10.9419 13.5327 10.4999 13.5327C10.0579 13.5327 9.63397 13.7083 9.32141 14.0209C9.00885 14.3334 8.83325 14.7574 8.83325 15.1994Z" fill="#E6E6E6"/>
</svg>
