<svg width="60" height="61" viewBox="0 0 60 61" fill="none" xmlns="http://www.w3.org/2000/svg">
<path d="M25.2624 10.5005H34.7374L35.9874 23.0005H24.0124L25.2624 10.5005ZM23.5124 28.0005H36.4874L37.7374 40.5005H32.4999V45.5005H37.4999C38.1629 45.5005 38.7988 45.7639 39.2677 46.2327C39.7365 46.7016 39.9999 47.3374 39.9999 48.0005C39.9999 48.6635 39.7365 49.2994 39.2677 49.7683C38.7988 50.2371 38.1629 50.5005 37.4999 50.5005H22.4999C21.8369 50.5005 21.201 50.2371 20.7321 49.7683C20.2633 49.2994 19.9999 48.6635 19.9999 48.0005C19.9999 47.3374 20.2633 46.7016 20.7321 46.2327C21.201 45.7639 21.8369 45.5005 22.4999 45.5005H27.4999V40.5005H22.2624L23.5124 28.0005ZM41.5124 28.0005L42.7624 40.5005H50.9749C51.5297 40.5005 52.0776 40.3775 52.5791 40.1402C53.0806 39.9029 53.5232 39.5572 53.875 39.1282C54.2267 38.6992 54.4789 38.1975 54.6134 37.6592C54.7478 37.1209 54.7611 36.5595 54.6524 36.0155L53.0499 28.0005H41.5124ZM39.7624 10.5005L41.0124 23.0005H52.0499L50.3524 14.5205C50.1259 13.3874 49.514 12.3678 48.6207 11.6349C47.7274 10.902 46.6079 10.5012 45.4524 10.5005H39.7624ZM20.2374 10.5005H14.5499C13.394 10.5006 12.2739 10.9012 11.38 11.6341C10.4862 12.3671 9.87395 13.387 9.64739 14.5205L7.94989 23.0005H18.9874L20.2374 10.5005ZM18.4874 28.0005H6.94989L5.34739 36.0155C5.23869 36.5593 5.25197 37.1205 5.38627 37.6586C5.52057 38.1967 5.77255 38.6983 6.12405 39.1272C6.47555 39.5562 6.91782 39.9019 7.41901 40.1394C7.92019 40.3768 8.4678 40.5002 9.02239 40.5005H17.2374L18.4874 28.0005Z" fill="#E6E6E6"/>
</svg>
