<svg width="24" height="25" viewBox="0 0 24 25" fill="none" xmlns="http://www.w3.org/2000/svg">
<path d="M12 18C13.25 18 14.3125 17.5625 15.1875 16.6875C16.0625 15.8125 16.5 14.75 16.5 13.5C16.5 12.25 16.0625 11.1875 15.1875 10.3125C14.3125 9.4375 13.25 9 12 9C10.75 9 9.6875 9.4375 8.8125 10.3125C7.9375 11.1875 7.5 12.25 7.5 13.5C7.5 14.75 7.9375 15.8125 8.8125 16.6875C9.6875 17.5625 10.75 18 12 18ZM12 16C11.3 16 10.7083 15.7583 10.225 15.275C9.74167 14.7917 9.5 14.2 9.5 13.5C9.5 12.8 9.74167 12.2083 10.225 11.725C10.7083 11.2417 11.3 11 12 11C12.7 11 13.2917 11.2417 13.775 11.725C14.2583 12.2083 14.5 12.8 14.5 13.5C14.5 14.2 14.2583 14.7917 13.775 15.275C13.2917 15.7583 12.7 16 12 16ZM4 21.5C3.45 21.5 2.97917 21.3042 2.5875 20.9125C2.19583 20.5208 2 20.05 2 19.5V7.5C2 6.95 2.19583 6.47917 2.5875 6.0875C2.97917 5.69583 3.45 5.5 4 5.5H7.15L9 3.5H15L16.85 5.5H20C20.55 5.5 21.0208 5.69583 21.4125 6.0875C21.8042 6.47917 22 6.95 22 7.5V19.5C22 20.05 21.8042 20.5208 21.4125 20.9125C21.0208 21.3042 20.55 21.5 20 21.5H4ZM4 19.5H20V7.5H15.95L14.125 5.5H9.875L8.05 7.5H4V19.5Z" fill="#E8EAED"/>
</svg>
