<svg width="583" height="168" viewBox="0 0 583 168" fill="none" xmlns="http://www.w3.org/2000/svg">
<path d="M0.000290871 0.908203H546.25C560.997 0.908203 568.37 0.908203 573.667 4.44734C575.96 5.97947 577.929 7.94824 579.461 10.2412C583 15.5379 583 22.9114 583 37.6582V130.878C583 145.625 583 152.999 579.461 158.295C577.929 160.588 575.96 162.557 573.667 164.089C568.37 167.628 560.997 167.628 546.25 167.628H36.75C22.0031 167.628 14.6297 167.628 9.33302 164.089C7.04003 162.557 5.07127 160.588 3.53914 158.295C0 152.999 0 145.625 0 130.878V27.8458L0.000290871 0.908203Z" fill="white" fill-opacity="0.1"/>
<path d="M0.500285 1.4082H546.25C553.634 1.4082 559.134 1.40881 563.452 1.84803C567.761 2.2864 570.837 3.15755 573.389 4.86308C575.628 6.35872 577.549 8.28061 579.045 10.519C580.751 13.0715 581.622 16.1472 582.06 20.4565C582.499 24.7741 582.5 30.2744 582.5 37.6582V130.878C582.5 138.262 582.499 143.762 582.06 148.08C581.622 152.389 580.751 155.465 579.045 158.018C577.549 160.256 575.628 162.178 573.389 163.674C570.837 165.379 567.761 166.25 563.452 166.689C559.134 167.128 553.634 167.128 546.25 167.128H36.75C29.3662 167.128 23.8659 167.128 19.5483 166.689C15.239 166.25 12.1633 165.379 9.61081 163.674C7.37241 162.178 5.45052 160.256 3.95487 158.018C2.24935 155.465 1.3782 152.389 0.939825 148.08C0.500604 143.762 0.5 138.262 0.5 130.878V27.8458L0.500285 1.4082Z" stroke="white" stroke-opacity="0.6"/>
</svg>
