<svg width="583" height="84" viewBox="0 0 583 84" fill="none" xmlns="http://www.w3.org/2000/svg">
<path d="M0.000290871 0.851074H546.25C560.997 0.851074 568.37 0.851074 573.667 4.39021C575.96 5.92234 577.929 7.89111 579.461 10.1841C583 15.4808 583 22.8542 583 37.6011V47.25C583 61.9969 583 69.3703 579.461 74.667C577.929 76.96 575.96 78.9287 573.667 80.4609C568.37 84 560.997 84 546.25 84H36.75C22.0031 84 14.6297 84 9.33302 80.4609C7.04003 78.9287 5.07127 76.96 3.53914 74.667C0 69.3703 0 61.9969 0 47.25V14.2857L0.000290871 0.851074Z" fill="white" fill-opacity="0.1"/>
<path d="M0.50028 1.35107H546.25C553.634 1.35107 559.134 1.35168 563.452 1.7909C567.761 2.22927 570.837 3.10042 573.389 4.80595C575.628 6.3016 577.549 8.22349 579.045 10.4619C580.751 13.0144 581.622 16.0901 582.06 20.3994C582.499 24.717 582.5 30.2172 582.5 37.6011V47.25C582.5 54.6338 582.499 60.1341 582.06 64.4517C581.622 68.761 580.751 71.8367 579.045 74.3892C577.549 76.6276 575.628 78.5495 573.389 80.0451C570.837 81.7506 567.761 82.6218 563.452 83.0602C559.134 83.4994 553.634 83.5 546.25 83.5H36.75C29.3662 83.5 23.8659 83.4994 19.5483 83.0602C15.239 82.6218 12.1633 81.7506 9.61081 80.0451C7.37241 78.5495 5.45052 76.6276 3.95487 74.3892C2.24935 71.8367 1.3782 68.761 0.939825 64.4517C0.500604 60.1341 0.5 54.6338 0.5 47.25V14.2857L0.50028 1.35107Z" stroke="white" stroke-opacity="0.6"/>
</svg>
