<svg width="45" height="45" viewBox="0 0 45 45" fill="none" xmlns="http://www.w3.org/2000/svg">
<g clip-path="url(#clip0_109_37)">
<path d="M2.8125 0C2.06658 0 1.35121 0.296316 0.823762 0.823762C0.296316 1.35121 0 2.06658 0 2.8125L0 28.125C0 28.8709 0.296316 29.5863 0.823762 30.1137C1.35121 30.6412 2.06658 30.9375 2.8125 30.9375H16.875V33.75H5.625V39.375H22.5V25.3125H5.625V5.625H33.75V16.875H39.375V2.8125C39.375 2.06658 39.0787 1.35121 38.5512 0.823762C38.0238 0.296316 37.3084 0 36.5625 0L2.8125 0Z" fill="white" fill-opacity="0.76"/>
<path d="M28.125 19.6875C27.3791 19.6875 26.6637 19.9838 26.1363 20.5113C25.6088 21.0387 25.3125 21.7541 25.3125 22.5V42.1875C25.3125 42.9334 25.6088 43.6488 26.1363 44.1762C26.6637 44.7037 27.3791 45 28.125 45H42.1875C42.9334 45 43.6488 44.7037 44.1762 44.1762C44.7037 43.6488 45 42.9334 45 42.1875V22.5C45 21.7541 44.7037 21.0387 44.1762 20.5113C43.6488 19.9838 42.9334 19.6875 42.1875 19.6875H28.125ZM30.9375 39.375V25.3125H39.375V39.375H30.9375Z" fill="white" fill-opacity="0.76"/>
</g>
<defs>
<clipPath id="clip0_109_37">
<rect width="45" height="45" fill="white"/>
</clipPath>
</defs>
</svg>
