<svg width="36" height="35" viewBox="0 0 36 35" fill="none" xmlns="http://www.w3.org/2000/svg">
<rect x="0.5" width="35" height="35" rx="17.5" fill="white" fill-opacity="0.75"/>
<g clip-path="url(#clip0_45_14)">
<path d="M19.06 8.78292C18.7787 8.50202 18.3975 8.34424 18 8.34424C17.6025 8.34424 17.2212 8.50202 16.94 8.78292L11.281 14.4389C10.9996 14.7203 10.8415 15.102 10.8415 15.4999C10.8415 15.8979 10.9996 16.2795 11.281 16.5609C11.5624 16.8423 11.944 17.0004 12.342 17.0004C12.7399 17.0004 13.1216 16.8423 13.403 16.5609L16.5 13.4649V24.9999C16.5 25.3977 16.658 25.7793 16.9393 26.0606C17.2206 26.3419 17.6021 26.4999 18 26.4999C18.3978 26.4999 18.7793 26.3419 19.0606 26.0606C19.3419 25.7793 19.5 25.3977 19.5 24.9999V13.4649L22.596 16.5609C22.7353 16.7003 22.9007 16.8108 23.0828 16.8862C23.2648 16.9616 23.4599 17.0004 23.657 17.0004C23.854 17.0004 24.0491 16.9616 24.2312 16.8862C24.4132 16.8108 24.5786 16.7003 24.718 16.5609C24.8573 16.4216 24.9678 16.2562 25.0432 16.0741C25.1186 15.8921 25.1575 15.697 25.1575 15.4999C25.1575 15.3029 25.1186 15.1078 25.0432 14.9257C24.9678 14.7437 24.8573 14.5783 24.718 14.4389L19.06 8.78292Z" fill="black"/>
</g>
<defs>
<clipPath id="clip0_45_14">
<rect width="24" height="24" fill="white" transform="translate(6 5.5)"/>
</clipPath>
</defs>
</svg>
