<svg width="506" height="430" viewBox="0 0 506 430" fill="none" xmlns="http://www.w3.org/2000/svg">
<mask id="path-1-inside-1_15_6" fill="white">
<path d="M505.489 103.216C505.489 201.718 460.507 441.859 339.402 429.5C144.615 409.621 0.702148 353.002 0.702148 254.5C0.702148 155.998 71.401 0.585938 174.372 0.585938C277.343 0.585938 505.489 4.71416 505.489 103.216Z"/>
</mask>
<path d="M505.489 103.216C505.489 201.718 460.507 441.859 339.402 429.5C144.615 409.621 0.702148 353.002 0.702148 254.5C0.702148 155.998 71.401 0.585938 174.372 0.585938C277.343 0.585938 505.489 4.71416 505.489 103.216Z" fill="#D9D9D9" fill-opacity="0.04"/>
<path d="M339.402 429.5L339.3 430.495L339.402 429.5ZM504.489 103.216C504.489 152.363 493.26 236.904 466.923 307.582C453.753 342.923 436.835 374.719 415.72 396.894C394.625 419.049 369.394 431.556 339.503 428.505L339.3 430.495C369.962 433.624 395.768 420.748 417.168 398.274C438.548 375.821 455.582 343.743 468.797 308.28C495.227 237.352 506.489 152.571 506.489 103.216H504.489ZM339.503 428.505C242.16 418.571 157.616 399.462 97.4398 370.582C37.2355 341.688 1.70215 303.168 1.70215 254.5H-0.297852C-0.297852 304.334 36.1254 343.374 96.5744 372.385C157.051 401.41 241.857 420.55 339.3 430.495L339.503 428.505ZM1.70215 254.5C1.70215 205.447 19.3186 142.144 49.7815 91.1172C80.2661 40.0546 123.421 1.58594 174.372 1.58594V-0.414062C122.352 -0.414062 78.6719 38.8232 48.0643 90.092C17.4351 141.397 -0.297852 205.051 -0.297852 254.5H1.70215ZM174.372 1.58594C225.861 1.58594 308.553 2.62007 378.357 15.9451C413.267 22.609 444.862 32.3314 467.706 46.4749C490.529 60.6054 504.489 79.0574 504.489 103.216H506.489C506.489 78.124 491.932 59.1217 468.759 44.7744C445.607 30.4403 413.73 20.6614 378.732 13.9805C308.72 0.615917 225.854 -0.414062 174.372 -0.414062V1.58594Z" fill="white" fill-opacity="0.05" mask="url(#path-1-inside-1_15_6)"/>
</svg>
