<svg width="50" height="50" viewBox="0 0 50 50" fill="none" xmlns="http://www.w3.org/2000/svg">
<rect width="50" height="50" rx="25" fill="#010101"/>
<rect x="0.5" y="0.5" width="49" height="49" rx="24.5" stroke="white" stroke-opacity="0.6"/>
<path d="M25 23C27.2091 23 29 21.2091 29 19C29 16.7909 27.2091 15 25 15C22.7909 15 21 16.7909 21 19C21 21.2091 22.7909 23 25 23Z" fill="white"/>
<path d="M33 30.5001C33 32.9851 33 36.983 25 36.983C17 36.983 17 32.9851 17 30.5001C17 28.0151 20.582 25.1076 25 25.1076C29.418 25.1076 33 28.0151 33 30.5001Z" fill="white"/>
</svg>
