<svg width="41" height="40" viewBox="0 0 41 40" fill="none" xmlns="http://www.w3.org/2000/svg">
<rect x="0.5" y="0.5" width="40" height="39" rx="15.5" stroke="#F5F5F5"/>
<path d="M20.5 12C21.5609 12 22.5783 12.4214 23.3284 13.1716C24.0786 13.9217 24.5 14.9391 24.5 16C24.5 17.0609 24.0786 18.0783 23.3284 18.8284C22.5783 19.5786 21.5609 20 20.5 20C19.4391 20 18.4217 19.5786 17.6716 18.8284C16.9214 18.0783 16.5 17.0609 16.5 16C16.5 14.9391 16.9214 13.9217 17.6716 13.1716C18.4217 12.4214 19.4391 12 20.5 12ZM20.5 22C24.92 22 28.5 23.79 28.5 26V28H12.5V26C12.5 23.79 16.08 22 20.5 22Z" fill="#F5F5F5"/>
</svg>
